<mxfile host="app.diagrams.net" modified="2023-08-05T13:20:53.989Z" agent="Mozilla/5.0 (Windows NT 10.0; Win64; x64) AppleWebKit/537.36 (KHTML, like Gecko) Chrome/115.0.0.0 Safari/537.36" etag="UinqjPxuq-UoTA1eNAX3" version="21.6.6" type="github">
  <diagram name="Page-1" id="TqrfcVUm_bMuKCJVhbVp">
    <mxGraphModel dx="1050" dy="534" grid="1" gridSize="10" guides="1" tooltips="1" connect="1" arrows="1" fold="1" page="1" pageScale="1" pageWidth="827" pageHeight="1169" math="0" shadow="0">
      <root>
        <mxCell id="0" />
        <mxCell id="1" parent="0" />
        <mxCell id="F08e1aAoksMYev2OrgjH-1" value="server-side rendered page" style="swimlane;fontStyle=0;childLayout=stackLayout;horizontal=1;startSize=50;horizontalStack=0;resizeParent=1;resizeParentMax=0;resizeLast=0;collapsible=1;marginBottom=0;whiteSpace=wrap;html=1;" vertex="1" parent="1">
          <mxGeometry x="31" y="70" width="260" height="350" as="geometry" />
        </mxCell>
        <mxCell id="F08e1aAoksMYev2OrgjH-8" value="" style="whiteSpace=wrap;html=1;aspect=fixed;" vertex="1" parent="1">
          <mxGeometry x="61" y="160" width="80" height="80" as="geometry" />
        </mxCell>
        <mxCell id="F08e1aAoksMYev2OrgjH-9" value="Component1" style="whiteSpace=wrap;html=1;aspect=fixed;" vertex="1" parent="1">
          <mxGeometry x="61" y="160" width="80" height="80" as="geometry" />
        </mxCell>
        <mxCell id="F08e1aAoksMYev2OrgjH-12" value="Component2" style="whiteSpace=wrap;html=1;aspect=fixed;" vertex="1" parent="1">
          <mxGeometry x="170" y="160" width="80" height="80" as="geometry" />
        </mxCell>
        <mxCell id="F08e1aAoksMYev2OrgjH-29" value="DB" style="shape=process;whiteSpace=wrap;html=1;backgroundOutline=1;" vertex="1" parent="1">
          <mxGeometry x="880" y="260" width="120" height="60" as="geometry" />
        </mxCell>
        <mxCell id="F08e1aAoksMYev2OrgjH-33" value="/apifetch-user" style="text;html=1;strokeColor=none;fillColor=none;align=center;verticalAlign=middle;whiteSpace=wrap;rounded=0;" vertex="1" parent="1">
          <mxGeometry x="520" y="120" width="100" height="30" as="geometry" />
        </mxCell>
        <mxCell id="F08e1aAoksMYev2OrgjH-38" style="edgeStyle=orthogonalEdgeStyle;rounded=0;orthogonalLoop=1;jettySize=auto;html=1;exitX=0;exitY=0;exitDx=120;exitDy=50;exitPerimeter=0;entryX=0;entryY=0.5;entryDx=0;entryDy=0;" edge="1" parent="1" source="F08e1aAoksMYev2OrgjH-36" target="F08e1aAoksMYev2OrgjH-37">
          <mxGeometry relative="1" as="geometry" />
        </mxCell>
        <mxCell id="F08e1aAoksMYev2OrgjH-36" value="" style="shape=cube;whiteSpace=wrap;html=1;boundedLbl=1;backgroundOutline=1;darkOpacity=0.05;darkOpacity2=0.1;" vertex="1" parent="1">
          <mxGeometry x="100" y="280" width="120" height="80" as="geometry" />
        </mxCell>
        <mxCell id="F08e1aAoksMYev2OrgjH-39" style="edgeStyle=orthogonalEdgeStyle;rounded=0;orthogonalLoop=1;jettySize=auto;html=1;exitX=1;exitY=0.5;exitDx=0;exitDy=0;entryX=0;entryY=0.5;entryDx=0;entryDy=0;" edge="1" parent="1" source="F08e1aAoksMYev2OrgjH-37" target="F08e1aAoksMYev2OrgjH-29">
          <mxGeometry relative="1" as="geometry" />
        </mxCell>
        <mxCell id="F08e1aAoksMYev2OrgjH-37" value="JS Function&lt;br&gt;Action" style="shape=trapezoid;perimeter=trapezoidPerimeter;whiteSpace=wrap;html=1;fixedSize=1;" vertex="1" parent="1">
          <mxGeometry x="470" y="190" width="200" height="90" as="geometry" />
        </mxCell>
      </root>
    </mxGraphModel>
  </diagram>
</mxfile>
